{
	"asset":{
		"generator":"Khronos glTF Blender I/O v4.0.44",
		"version":"2.0"
	},
	"scene":0,
	"scenes":[
		{
			"name":"Scene",
			"nodes":[
				0
			]
		}
	],
	"nodes":[
		{
			"mesh":0,
			"name":"Cylinder",
			"rotation":[
				0,
				0,
				-0.7071068286895752,
				0.7071068286895752
			],
			"scale":[
				0.036048199981451035,
				9.620171546936035,
				0.036048199981451035
			],
			"translation":[
				19.18592643737793,
				0,
				0
			]
		}
	],
	"materials":[
		{
			"doubleSided":true,
			"name":"black plastic",
			"pbrMetallicRoughness":{
				"baseColorFactor":[
					0.009079653769731522,
					0.007915057241916656,
					0.008196172304451466,
					1
				],
				"metallicRoughnessTexture":{
					"index":0
				}
			}
		}
	],
	"meshes":[
		{
			"name":"Cylinder",
			"primitives":[
				{
					"attributes":{
						"POSITION":0,
						"NORMAL":1,
						"TEXCOORD_0":2
					},
					"indices":3,
					"material":0
				}
			]
		}
	],
	"textures":[
		{
			"sampler":0,
			"source":0
		}
	],
	"images":[
		{
			"mimeType":"image/png",
			"name":"plastic",
			"uri":"plastic.png"
		}
	],
	"accessors":[
		{
			"bufferView":0,
			"componentType":5126,
			"count":2503,
			"max":[
				56.114349365234375,
				-0.9119769334793091,
				27.740633010864258
			],
			"min":[
				-5.548168182373047,
				-2.356867551803589,
				-74.52381134033203
			],
			"type":"VEC3"
		},
		{
			"bufferView":1,
			"componentType":5126,
			"count":2503,
			"type":"VEC3"
		},
		{
			"bufferView":2,
			"componentType":5126,
			"count":2503,
			"type":"VEC2"
		},
		{
			"bufferView":3,
			"componentType":5123,
			"count":13752,
			"type":"SCALAR"
		}
	],
	"bufferViews":[
		{
			"buffer":0,
			"byteLength":30036,
			"byteOffset":0,
			"target":34962
		},
		{
			"buffer":0,
			"byteLength":30036,
			"byteOffset":30036,
			"target":34962
		},
		{
			"buffer":0,
			"byteLength":20024,
			"byteOffset":60072,
			"target":34962
		},
		{
			"buffer":0,
			"byteLength":27504,
			"byteOffset":80096,
			"target":34963
		}
	],
	"samplers":[
		{
			"magFilter":9729,
			"minFilter":9987
		}
	],
	"buffers":[
		{
			"byteLength":107600,
			"uri":"controller.bin"
		}
	]
}
